<?xml version="1.0" encoding="iso-8859-1"?>
<!-- Generator: Adobe Illustrator 17.1.0, SVG Export Plug-In . SVG Version: 6.00 Build 0)  -->
<!DOCTYPE svg PUBLIC "-//W3C//DTD SVG 1.1//EN" "http://www.w3.org/Graphics/SVG/1.1/DTD/svg11.dtd">
<svg version="1.1" id="Capa_1" xmlns="http://www.w3.org/2000/svg" xmlns:xlink="http://www.w3.org/1999/xlink" x="0px" y="0px"
	 viewBox="0 0 357.821 357.821" style="enable-background:new 0 0 357.821 357.821;" xml:space="preserve">
<path d="M355.625,152.582c-2.929-2.928-7.678-2.928-10.606,0l-78.072,78.072c-11.003-18.695-27.69-33.113-47.207-41.435
	l25.399-99.657c24.586,8.27,47.546,21.242,67.484,38.423c3.138,2.704,7.874,2.353,10.578-0.786
	c2.704-3.138,2.352-7.873-0.786-10.577C299.017,96.46,271.751,81.68,242.56,73.003c-0.281-0.109-0.569-0.208-0.869-0.284
	c-0.144-0.037-0.287-0.059-0.431-0.087c-19.548-5.679-39.941-8.637-60.602-8.637c-71.676,0-138.721,35.351-179.343,94.563
	c-2.043,2.979-1.673,6.992,0.881,9.547l86.369,86.369c1.421,1.421,3.335,2.196,5.303,2.196c0.532,0,1.068-0.057,1.6-0.173
	c2.496-0.545,4.542-2.322,5.431-4.717c6.393-17.222,18.086-31.503,32.783-41.279l38.484,79.104c1.298,2.668,3.969,4.221,6.75,4.221
	c1.101,0,2.219-0.244,3.276-0.758c3.725-1.812,5.275-6.301,3.463-10.025l-38.791-79.737c10.484-4.579,21.951-7.095,33.795-7.095
	c33.304,0,63.734,19.656,77.526,50.076c1.016,2.242,3.067,3.842,5.489,4.282c2.42,0.438,4.904-0.336,6.645-2.075l85.306-85.306
	C358.554,160.259,358.554,155.511,355.625,152.582z M140.296,189.807l-28.428-58.434c-1.812-3.725-6.3-5.274-10.025-3.463
	c-3.725,1.812-5.275,6.301-3.463,10.025l28.696,58.985c-14.968,9.532-27.418,22.977-35.66,39.19l-74.137-74.137
	c38.111-52.073,98.724-82.979,163.38-82.979c17.015,0,33.833,2.155,50.085,6.31l-25.25,99.071
	c-8.011-2.066-16.342-3.165-24.835-3.165C166.499,181.212,152.792,184.254,140.296,189.807z"/>
<g>
</g>
<g>
</g>
<g>
</g>
<g>
</g>
<g>
</g>
<g>
</g>
<g>
</g>
<g>
</g>
<g>
</g>
<g>
</g>
<g>
</g>
<g>
</g>
<g>
</g>
<g>
</g>
<g>
</g>
</svg>
